<svg width="25" height="24" viewBox="0 0 25 24" fill="none" xmlns="http://www.w3.org/2000/svg">
<path d="M20.8736 9.4697C20.8388 5.54972 24.0455 3.66781 24.1906 3.57606C22.3861 0.911329 19.5778 0.546276 18.576 0.503328C16.1874 0.259306 13.9129 1.92256 12.7022 1.92256C11.4915 1.92256 9.61931 0.538472 7.63883 0.577515C5.03171 0.616559 2.63154 2.10607 1.2893 4.4604C-1.41646 9.19835 0.598839 16.2204 3.23303 20.0662C4.52305 21.9461 6.0587 24.0642 8.07786 23.9861C10.0235 23.908 10.7585 22.7172 13.1064 22.7172C15.4544 22.7172 16.1158 23.9861 18.1717 23.949C20.2625 23.908 21.5892 22.0281 22.8696 20.1423C24.3472 17.9597 24.9584 15.8475 24.9932 15.7362C24.9468 15.7167 20.9162 14.1569 20.8736 9.4697" fill="white"/>
</svg>
