<svg width="134" height="56" viewBox="0 0 134 56" fill="none" xmlns="http://www.w3.org/2000/svg">
<path fill-rule="evenodd" clip-rule="evenodd" d="M24.9719 7.48903C23.4173 9.35119 20.9299 10.8199 18.4426 10.6101C18.1317 8.09227 19.3494 5.41705 20.7745 3.76471C22.3291 1.85009 25.0496 0.486258 27.252 0.381348C27.5111 3.00411 26.5006 5.57441 24.9719 7.48903ZM27.2258 11.1084C25.0345 10.9807 23.035 11.7755 21.42 12.4174C20.3807 12.8305 19.5006 13.1803 18.831 13.1803C18.0796 13.1803 17.1632 12.8118 16.1342 12.398L16.1342 12.398L16.1342 12.398C14.7859 11.8558 13.2445 11.236 11.628 11.2657C7.92292 11.3182 4.4769 13.4426 2.58548 16.826C-1.301 23.5927 1.575 33.6116 5.33193 39.1194C7.17153 41.8471 9.37387 44.837 12.2758 44.7321C13.5524 44.6834 14.4708 44.2889 15.4212 43.8807C16.5154 43.4107 17.6521 42.9224 19.4269 42.9224C21.1402 42.9224 22.2272 43.398 23.2706 43.8544C24.2627 44.2884 25.2155 44.7052 26.6299 44.6797C29.6354 44.6272 31.5268 41.952 33.3664 39.2243C35.3517 36.2968 36.2241 33.4397 36.3565 33.0061L36.3565 33.006L36.3651 32.9778L36.372 32.9559C36.3714 32.9554 36.3701 32.9545 36.368 32.9533L36.364 32.9512L36.3558 32.947L36.3469 32.9427L36.301 32.9213C35.6373 32.6138 30.565 30.2632 30.5163 23.9599C30.4675 18.6692 34.5396 15.9886 35.1806 15.5666C35.2196 15.5409 35.246 15.5236 35.2578 15.5146C32.6669 11.6329 28.6249 11.2133 27.2258 11.1084ZM48.0317 44.3915V3.50267H63.1889C71.0137 3.50267 76.4807 8.958 76.4807 16.9312C76.4807 24.9044 70.9101 30.4122 62.9817 30.4122H54.3019V44.3915H48.0317ZM54.3013 8.85257H61.5301C66.9712 8.85257 70.0804 11.7901 70.0804 16.9569C70.0804 22.1237 66.9712 25.0875 61.5042 25.0875H54.3013V8.85257ZM97.183 39.4865C95.5248 42.6863 91.8715 44.7058 87.9332 44.7058C82.1034 44.7058 78.0356 41.1913 78.0356 35.8933C78.0356 30.6478 81.9739 27.6316 89.2546 27.1858L97.0794 26.7137V24.4581C97.0794 21.1272 94.9288 19.3175 91.0942 19.3175C87.9332 19.3175 85.6272 20.9698 85.1608 23.4877H79.5124C79.6938 18.1897 84.6167 14.3343 91.2755 14.3343C98.4526 14.3343 103.116 18.1373 103.116 24.0385V44.3911H97.3125V39.4865H97.183ZM89.6168 39.8542C86.2744 39.8542 84.1498 38.2281 84.1498 35.7364C84.1498 33.1661 86.1967 31.6712 90.1091 31.4351L97.0789 30.9893V33.2973C97.0789 37.1265 93.866 39.8542 89.6168 39.8542ZM122.367 45.9909C119.854 53.1511 116.978 55.5116 110.863 55.5116C110.397 55.5116 108.842 55.4591 108.479 55.3542V50.4496C108.868 50.5021 109.827 50.5545 110.319 50.5545C113.091 50.5545 114.646 49.3743 115.605 46.3057L116.175 44.496L105.552 14.7277H112.107L119.491 38.8833H119.621L127.005 14.7277H133.379L122.367 45.9909Z" fill="black"/>
</svg>
