<svg width="86" height="87" viewBox="0 0 86 87" fill="none" xmlns="http://www.w3.org/2000/svg">
<path fill-rule="evenodd" clip-rule="evenodd" d="M85.612 43.5844C85.612 67.1537 66.5062 86.2603 42.9381 86.2603C19.37 86.2603 0.264282 67.1537 0.264282 43.5844C0.264282 20.0151 19.37 0.908447 42.9381 0.908447C66.5062 0.908447 85.612 20.0151 85.612 43.5844ZM53.1902 27.729C59.1263 29.7676 63.4685 32.8201 62.6167 38.5008C61.9979 42.6605 59.6834 44.6724 56.6082 45.3768C60.8273 47.5648 62.2651 51.7172 60.9291 56.7382C58.3923 63.9638 52.3624 64.5722 44.3423 63.062L42.3948 70.8292L37.6936 69.6606L39.6143 61.9973C38.3955 61.6958 37.1499 61.373 35.8667 61.0288L33.9381 68.7293L29.2422 67.5606L31.187 59.7774L21.7176 57.3973L24.0535 52.0341C24.0535 52.0341 27.5198 52.9493 27.4716 52.8826C28.8029 53.2108 29.3949 52.3463 29.628 51.7726L34.9051 30.6908C34.964 29.6955 34.6185 28.4415 32.7139 27.9665C32.7862 27.9158 29.2985 27.1207 29.2985 27.1207L30.5494 22.1177L40.0322 24.4578L41.9609 16.7625L46.6594 17.9312L44.7709 25.4744C46.0352 25.7599 47.305 26.0507 48.5399 26.3576L50.415 18.8624L55.1162 20.0311L53.1902 27.729ZM41.9409 40.566C45.1434 41.4151 52.1118 43.2626 53.3264 38.4184C54.5655 33.4622 47.7954 31.9653 44.4806 31.2324L44.4805 31.2324C44.1049 31.1493 43.7737 31.0761 43.5035 31.0087L41.1623 40.3636C41.3853 40.4187 41.6473 40.4882 41.9409 40.566ZM38.3125 55.6279C42.1481 56.6383 50.537 58.848 51.8718 53.5101C53.238 48.0523 45.1045 46.2344 41.136 45.3474L41.1358 45.3473L41.1354 45.3472C40.6923 45.2482 40.3011 45.1607 39.9808 45.0811L37.3985 55.3912C37.6608 55.4562 37.9681 55.5372 38.312 55.6278L38.3125 55.6279Z" fill="#F7931A"/>
</svg>
