<svg width="40" height="25" viewBox="0 0 40 25" fill="none" xmlns="http://www.w3.org/2000/svg">
<path d="M24.7835 21.5453H14.2309V2.58038H24.7835V21.5453Z" fill="#FF5F00"/>
<path d="M14.9069 12.0613C14.9069 8.2142 16.7081 4.7873 19.5132 2.57887C17.4619 0.963955 14.8732 6.83927e-05 12.0597 6.83927e-05C5.39915 6.83927e-05 0 5.39998 0 12.0613C0 18.7226 5.39915 24.1226 12.0597 24.1226C14.8732 24.1226 17.4619 23.1587 19.5132 21.5438C16.7081 19.3353 14.9069 15.9084 14.9069 12.0613Z" fill="#EB001B"/>
<path d="M39.0156 12.0613C39.0156 18.7226 33.6165 24.1226 26.9559 24.1226C24.1425 24.1226 21.5537 23.1587 19.5017 21.5438C22.3075 19.3353 24.1087 15.9084 24.1087 12.0613C24.1087 8.2142 22.3075 4.7873 19.5017 2.57887C21.5537 0.963955 24.1425 6.83927e-05 26.9559 6.83927e-05C33.6165 6.83927e-05 39.0156 5.39998 39.0156 12.0613Z" fill="#F79E1B"/>
</svg>
