<svg width="130" height="43" viewBox="0 0 130 43" fill="none" xmlns="http://www.w3.org/2000/svg">
<path fill-rule="evenodd" clip-rule="evenodd" d="M32.4363 42.035H21.216L12.8022 9.9358C12.4029 8.45924 11.5549 7.15387 10.3076 6.53864C7.19482 4.99253 3.76474 3.76206 0.0228271 3.14147V1.90565H18.0978C20.5924 1.90565 22.4633 3.76206 22.7752 5.91805L27.1407 29.0723L38.3555 1.90565H49.2639L32.4363 42.035ZM55.5005 42.035H44.9039L53.6295 1.90565H64.2261L55.5005 42.035ZM77.9355 13.0225C78.2474 10.8612 80.1183 9.62537 82.3011 9.62537C85.7312 9.31508 89.4676 9.93566 92.5859 11.4764L94.4568 2.83638C91.3386 1.60057 87.9085 0.97998 84.7957 0.97998C74.5109 0.97998 67.0271 6.53849 67.0271 14.253C67.0271 20.1218 72.3281 23.2033 76.0701 25.0597C80.1183 26.9108 81.6774 28.1466 81.3656 29.9977C81.3656 32.7742 78.2474 34.0101 75.1346 34.0101C71.3927 34.0101 67.6508 33.0845 64.2261 31.5384L62.3552 40.1838C66.0971 41.7246 70.1454 42.3452 73.8873 42.3452C85.4194 42.6501 92.5859 37.0969 92.5859 28.7618C92.5859 18.2654 77.9355 17.6502 77.9355 13.0225V13.0225ZM129.671 42.035L121.257 1.90565H112.22C110.349 1.90565 108.478 3.14147 107.854 4.99253L92.274 42.035H103.182L105.36 36.1716H118.763L120.01 42.035H129.671ZM113.779 12.7121L116.892 27.8361H108.166L113.779 12.7121Z" fill="#172B85"/>
</svg>
